<svg xmlns:dc="http://purl.org/dc/elements/1.1/" xmlns:cc="http://creativecommons.org/ns#" xmlns:rdf="http://www.w3.org/1999/02/22-rdf-syntax-ns#" xmlns:svg="http://www.w3.org/2000/svg" xmlns="http://www.w3.org/2000/svg" xmlns:sodipodi="http://sodipodi.sourceforge.net/DTD/sodipodi-0.dtd" xmlns:inkscape="http://www.inkscape.org/namespaces/inkscape" viewBox="0 0 100 125" version="1.1" x="0px" y="0px"><g transform="translate(0,-952.36216)"><path style="opacity:1;fill:#000000;fill-opacity:1;stroke:none;stroke-width:2;stroke-linecap:butt;stroke-linejoin:miter;stroke-miterlimit:4;stroke-dasharray:none;stroke-dashoffset:0;stroke-opacity:1" d="m 50.000075,957.3622 a 35.585729,35.585729 0 0 0 -35.585884,35.58585 35.585729,35.585729 0 0 0 23.467876,33.42515 l 12.118008,20.989 12.128129,-21.0063 A 35.585729,35.585729 0 0 0 85.585801,992.94805 35.585729,35.585729 0 0 0 50.000075,957.3622 Z m 0,9.18976 a 26.396155,26.396155 0 0 1 26.396043,26.39609 26.396155,26.396155 0 0 1 -26.396043,26.39605 26.396155,26.396155 0 0 1 -26.396201,-26.39605 26.396155,26.396155 0 0 1 26.396201,-26.39609 z"/><path style="color:#000000;font-style:normal;font-variant:normal;font-weight:normal;font-stretch:normal;font-size:medium;line-height:normal;font-family:sans-serif;text-indent:0;text-align:start;text-decoration:none;text-decoration-line:none;text-decoration-style:solid;text-decoration-color:#000000;letter-spacing:normal;word-spacing:normal;text-transform:none;direction:ltr;block-progression:tb;writing-mode:lr-tb;baseline-shift:baseline;text-anchor:start;white-space:normal;clip-rule:nonzero;display:inline;overflow:visible;visibility:visible;opacity:1;isolation:auto;mix-blend-mode:normal;color-interpolation:sRGB;color-interpolation-filters:linearRGB;solid-color:#000000;solid-opacity:1;fill:#000000;fill-opacity:1;fill-rule:evenodd;stroke:none;stroke-width:1.5;stroke-linecap:round;stroke-linejoin:round;stroke-miterlimit:4;stroke-dasharray:none;stroke-dashoffset:0;stroke-opacity:1;color-rendering:auto;image-rendering:auto;shape-rendering:auto;text-rendering:auto;enable-background:accumulate" d="m 36.623026,983.36174 a 0.31633373,0.31633373 0 0 0 -0.05931,0.62356 l 3.71987,0.92996 1.191036,1.7586 a 0.31633373,0.31633373 0 0 0 0.186144,0.13015 l 4.377146,1.07905 a 0.31633373,0.31633373 0 0 0 0.321363,-0.10791 l 1.73128,-2.13504 3.05279,-0.73474 5.795445,1.65564 a 0.31652147,0.31652147 0 0 0 0.173808,-0.60871 l -5.876261,-1.67871 a 0.31633373,0.31633373 0 0 0 -0.160681,-0.003 l -3.237985,0.78005 a 0.31633373,0.31633373 0 0 0 -0.171277,0.1079 l -1.672131,2.06256 -4.064166,-1.00245 -1.191035,-1.75777 a 0.31633373,0.31633373 0 0 0 -0.185354,-0.12932 l -3.836744,-0.95963 a 0.31633373,0.31633373 0 0 0 -0.09394,-0.01 z"/><path style="color:#000000;font-style:normal;font-variant:normal;font-weight:normal;font-stretch:normal;font-size:medium;line-height:normal;font-family:sans-serif;text-indent:0;text-align:start;text-decoration:none;text-decoration-line:none;text-decoration-style:solid;text-decoration-color:#000000;letter-spacing:normal;word-spacing:normal;text-transform:none;direction:ltr;block-progression:tb;writing-mode:lr-tb;baseline-shift:baseline;text-anchor:start;white-space:normal;clip-rule:nonzero;display:inline;overflow:visible;visibility:visible;opacity:1;isolation:auto;mix-blend-mode:normal;color-interpolation:sRGB;color-interpolation-filters:linearRGB;solid-color:#000000;solid-opacity:1;fill:#000000;fill-opacity:1;fill-rule:evenodd;stroke:none;stroke-width:1.5;stroke-linecap:round;stroke-linejoin:round;stroke-miterlimit:4;stroke-dasharray:none;stroke-dashoffset:0;stroke-opacity:1;color-rendering:auto;image-rendering:auto;shape-rendering:auto;text-rendering:auto;enable-background:accumulate" d="m 35.60912,984.24829 a 0.31633373,0.31633373 0 0 0 -0.185353,0.56341 l 4.136599,3.29727 a 0.31633373,0.31633373 0 0 0 0.221569,0.0684 l 0.64668,-0.0502 0.893712,0.78911 1.173639,1.58482 0.89466,1.37063 a 0.31633373,0.31633373 0 0 0 0.308869,0.14085 l 1.259357,-0.18039 a 0.31633373,0.31633373 0 1 0 -0.08967,-0.62601 l -1.059296,0.15156 -0.789173,-1.21084 a 0.31633373,0.31633373 0 0 0 -0.01107,-0.0149 l -1.199259,-1.6194 a 0.31633373,0.31633373 0 0 0 -0.04444,-0.0486 l -1.019758,-0.89948 a 0.31633373,0.31633373 0 0 0 -0.233114,-0.0783 l -0.655695,0.0503 -2.85004,-2.27178 1.948896,0.5247 a 0.31639826,0.31639826 0 0 0 0.164002,-0.61118 l -3.417644,-0.91925 a 0.31633373,0.31633373 0 0 0 -0.09378,-0.0108 z"/><path style="color:#000000;font-style:normal;font-variant:normal;font-weight:normal;font-stretch:normal;font-size:medium;line-height:normal;font-family:sans-serif;text-indent:0;text-align:start;text-decoration:none;text-decoration-line:none;text-decoration-style:solid;text-decoration-color:#000000;letter-spacing:normal;word-spacing:normal;text-transform:none;direction:ltr;block-progression:tb;writing-mode:lr-tb;baseline-shift:baseline;text-anchor:start;white-space:normal;clip-rule:nonzero;display:inline;overflow:visible;visibility:visible;opacity:1;isolation:auto;mix-blend-mode:normal;color-interpolation:sRGB;color-interpolation-filters:linearRGB;solid-color:#000000;solid-opacity:1;fill:#000000;fill-opacity:1;fill-rule:evenodd;stroke:none;stroke-width:1.5;stroke-linecap:round;stroke-linejoin:round;stroke-miterlimit:4;stroke-dasharray:none;stroke-dashoffset:0;stroke-opacity:1;color-rendering:auto;image-rendering:auto;shape-rendering:auto;text-rendering:auto;enable-background:accumulate" d="m 59.543384,983.18217 -3.126014,0.002 a 0.31633373,0.31633373 0 1 0 0,0.63261 l 3.031123,-0.002 3.971964,2.59054 1.27185,3.39203 -1.134259,0.22652 a 0.31633373,0.31633373 0 0 0 -0.146606,0.0725 l -3.338569,2.92084 -2.376377,1.48515 a 0.31633373,0.31633373 0 0 0 -0.147397,0.24465 l -0.338602,4.50401 -12.297035,0 -1.105317,-1.85829 0.915062,-0.96535 a 0.31633373,0.31633373 0 0 0 0.01107,-0.42258 l -2.698531,-3.17704 a 0.31633373,0.31633373 0 0 0 -0.08319,-0.07 l -3.657244,-2.09881 a 0.31633373,0.31633373 0 0 0 -0.145815,-0.0412 l -4.064007,-0.15649 a 0.31654565,0.31654565 0 0 0 -0.02483,0.63261 l 3.98683,0.1532 3.541793,2.03205 2.479492,2.91922 -0.884697,0.93326 a 0.31633373,0.31633373 0 0 0 -0.04207,0.37888 l 1.318821,2.21825 a 0.31633373,0.31633373 0 0 0 0.271704,0.15486 l 12.771646,0 a 0.31633373,0.31633373 0 0 0 0.315353,-0.29242 l 0.347616,-4.63661 2.262825,-1.4143 a 0.31633373,0.31633373 0 0 0 0.04033,-0.0304 l 3.29397,-2.88212 1.415926,-0.28335 a 0.31633373,0.31633373 0 0 0 0.234855,-0.42092 l -1.439017,-3.83763 a 0.31633373,0.31633373 0 0 0 -0.123674,-0.15404 l -4.13739,-2.69763 a 0.31633373,0.31633373 0 0 0 -0.173017,-0.0519 z"/><path style="color:#000000;font-style:normal;font-variant:normal;font-weight:normal;font-stretch:normal;font-size:medium;line-height:normal;font-family:sans-serif;text-indent:0;text-align:start;text-decoration:none;text-decoration-line:none;text-decoration-style:solid;text-decoration-color:#000000;letter-spacing:normal;word-spacing:normal;text-transform:none;direction:ltr;block-progression:tb;writing-mode:lr-tb;baseline-shift:baseline;text-anchor:start;white-space:normal;clip-rule:nonzero;display:inline;overflow:visible;visibility:visible;opacity:1;isolation:auto;mix-blend-mode:normal;color-interpolation:sRGB;color-interpolation-filters:linearRGB;solid-color:#000000;solid-opacity:1;fill:#000000;fill-opacity:1;fill-rule:evenodd;stroke:none;stroke-width:1.5;stroke-linecap:round;stroke-linejoin:round;stroke-miterlimit:4;stroke-dasharray:none;stroke-dashoffset:0;stroke-opacity:1;color-rendering:auto;image-rendering:auto;shape-rendering:auto;text-rendering:auto;enable-background:accumulate" d="m 44.956163,991.19952 a 0.31633373,0.31633373 0 0 0 -0.243869,0.1079 l -1.079064,1.19931 a 0.31633373,0.31633373 0 0 0 -0.08066,0.18864 l -0.03954,0.55517 -1.093931,0.0363 a 0.31633373,0.31633373 0 1 0 0.02056,0.6318 l 1.378919,-0.0445 a 0.31633373,0.31633373 0 0 0 0.304757,-0.29404 l 0.05266,-0.73065 1.006632,-1.11859 a 0.31633373,0.31633373 0 0 0 -0.226473,-0.53128 z"/><path style="color:#000000;font-style:normal;font-variant:normal;font-weight:normal;font-stretch:normal;font-size:medium;line-height:normal;font-family:sans-serif;text-indent:0;text-align:start;text-decoration:none;text-decoration-line:none;text-decoration-style:solid;text-decoration-color:#000000;letter-spacing:normal;word-spacing:normal;text-transform:none;direction:ltr;block-progression:tb;writing-mode:lr-tb;baseline-shift:baseline;text-anchor:start;white-space:normal;clip-rule:nonzero;display:inline;overflow:visible;visibility:visible;opacity:1;isolation:auto;mix-blend-mode:normal;color-interpolation:sRGB;color-interpolation-filters:linearRGB;solid-color:#000000;solid-opacity:1;fill:#000000;fill-opacity:1;fill-rule:evenodd;stroke:none;stroke-width:1.5;stroke-linecap:round;stroke-linejoin:round;stroke-miterlimit:4;stroke-dasharray:none;stroke-dashoffset:0;stroke-opacity:1;color-rendering:auto;image-rendering:auto;shape-rendering:auto;text-rendering:auto;enable-background:accumulate" d="m 64.450969,991.14021 a 0.31633373,0.31633373 0 0 0 -0.03037,0.003 l -2.190234,0.30306 a 0.31638881,0.31638881 0 1 0 0.08651,0.62684 l 2.093762,-0.28994 3.556817,1.75694 a 0.31644531,0.31644531 0 1 0 0.280086,-0.56754 l -3.643326,-1.79976 a 0.31633373,0.31633373 0 0 0 -0.153248,-0.0321 z"/><path style="color:#000000;font-style:normal;font-variant:normal;font-weight:normal;font-stretch:normal;font-size:medium;line-height:normal;font-family:sans-serif;text-indent:0;text-align:start;text-decoration:none;text-decoration-line:none;text-decoration-style:solid;text-decoration-color:#000000;letter-spacing:normal;word-spacing:normal;text-transform:none;direction:ltr;block-progression:tb;writing-mode:lr-tb;baseline-shift:baseline;text-anchor:start;white-space:normal;clip-rule:nonzero;display:inline;overflow:visible;visibility:visible;opacity:1;isolation:auto;mix-blend-mode:normal;color-interpolation:sRGB;color-interpolation-filters:linearRGB;solid-color:#000000;solid-opacity:1;fill:#000000;fill-opacity:1;fill-rule:nonzero;stroke:none;stroke-width:4.02112389;stroke-linecap:round;stroke-linejoin:round;stroke-miterlimit:4;stroke-dasharray:none;stroke-dashoffset:0;stroke-opacity:1;color-rendering:auto;image-rendering:auto;shape-rendering:auto;text-rendering:auto;enable-background:accumulate" d="m 36.491286,991.68139 c -3.010563,0 -5.469495,2.45893 -5.469495,5.46936 0,3.01045 2.458932,5.46945 5.469495,5.46945 3.010406,0 5.468547,-2.459 5.468547,-5.46945 0,-3.01043 -2.458141,-5.46936 -5.468547,-5.46936 z m 0,1.69601 c 2.09392,0 3.773326,1.67939 3.773326,3.77335 0,2.094 -1.679406,3.77345 -3.773326,3.77345 -2.094078,0 -3.773484,-1.67945 -3.773484,-3.77345 0,-2.09396 1.679406,-3.77335 3.773484,-3.77335 z"/><path style="color:#000000;font-style:normal;font-variant:normal;font-weight:normal;font-stretch:normal;font-size:medium;line-height:normal;font-family:sans-serif;text-indent:0;text-align:start;text-decoration:none;text-decoration-line:none;text-decoration-style:solid;text-decoration-color:#000000;letter-spacing:normal;word-spacing:normal;text-transform:none;direction:ltr;block-progression:tb;writing-mode:lr-tb;baseline-shift:baseline;text-anchor:start;white-space:normal;clip-rule:nonzero;display:inline;overflow:visible;visibility:visible;opacity:1;isolation:auto;mix-blend-mode:normal;color-interpolation:sRGB;color-interpolation-filters:linearRGB;solid-color:#000000;solid-opacity:1;fill:#000000;fill-opacity:1;fill-rule:nonzero;stroke:none;stroke-width:1.04618728;stroke-linecap:round;stroke-linejoin:round;stroke-miterlimit:4;stroke-dasharray:none;stroke-dashoffset:0;stroke-opacity:1;color-rendering:auto;image-rendering:auto;shape-rendering:auto;text-rendering:auto;enable-background:accumulate" d="m 36.491128,993.91693 c -1.783627,0 -3.234505,1.45009 -3.234505,3.23382 0,1.78377 1.450878,3.23385 3.234505,3.23385 1.783786,0 3.233873,-1.45008 3.233873,-3.23385 0,-1.78373 -1.450087,-3.23382 -3.233873,-3.23382 z m 0,0.40748 c 1.563323,0 2.825685,1.2631 2.825685,2.82634 0,1.5633 -1.262362,2.8264 -2.825685,2.8264 -1.563165,0 -2.826317,-1.2631 -2.826317,-2.8264 0,-1.56324 1.263152,-2.82634 2.826317,-2.82634 z"/><path style="color:#000000;font-style:normal;font-variant:normal;font-weight:normal;font-stretch:normal;font-size:medium;line-height:normal;font-family:sans-serif;text-indent:0;text-align:start;text-decoration:none;text-decoration-line:none;text-decoration-style:solid;text-decoration-color:#000000;letter-spacing:normal;word-spacing:normal;text-transform:none;direction:ltr;block-progression:tb;writing-mode:lr-tb;baseline-shift:baseline;text-anchor:start;white-space:normal;clip-rule:nonzero;display:inline;overflow:visible;visibility:visible;opacity:1;isolation:auto;mix-blend-mode:normal;color-interpolation:sRGB;color-interpolation-filters:linearRGB;solid-color:#000000;solid-opacity:1;fill:#000000;fill-opacity:1;fill-rule:evenodd;stroke:none;stroke-width:1.00528097;stroke-linecap:round;stroke-linejoin:round;stroke-miterlimit:4;stroke-dasharray:none;stroke-dashoffset:0;stroke-opacity:1;color-rendering:auto;image-rendering:auto;shape-rendering:auto;text-rendering:auto;enable-background:accumulate" d="m 37.762979,1000.9217 a 0.21200286,0.21200286 0 0 0 -0.165584,0.3468 c 0.214453,0.268 0.110389,0.1336 0.292421,0.3764 a 0.21211061,0.21211061 0 1 0 0.339392,-0.2545 c -0.180766,-0.2412 -0.08761,-0.1209 -0.300645,-0.3872 a 0.21200286,0.21200286 0 0 0 -0.165584,-0.082 z"/><path style="color:#000000;font-style:normal;font-variant:normal;font-weight:normal;font-stretch:normal;font-size:medium;line-height:normal;font-family:sans-serif;text-indent:0;text-align:start;text-decoration:none;text-decoration-line:none;text-decoration-style:solid;text-decoration-color:#000000;letter-spacing:normal;word-spacing:normal;text-transform:none;direction:ltr;block-progression:tb;writing-mode:lr-tb;baseline-shift:baseline;text-anchor:start;white-space:normal;clip-rule:nonzero;display:inline;overflow:visible;visibility:visible;opacity:1;isolation:auto;mix-blend-mode:normal;color-interpolation:sRGB;color-interpolation-filters:linearRGB;solid-color:#000000;solid-opacity:1;fill:#000000;fill-opacity:1;fill-rule:nonzero;stroke:none;stroke-width:1.01602721;stroke-linecap:round;stroke-linejoin:round;stroke-miterlimit:4;stroke-dasharray:none;stroke-dashoffset:0;stroke-opacity:1;color-rendering:auto;image-rendering:auto;shape-rendering:auto;text-rendering:auto;enable-background:accumulate" d="m 63.879253,994.86073 c -1.520148,0 -2.756889,1.23606 -2.756889,2.7563 0,1.52028 1.236741,2.75697 2.756889,2.75697 1.520306,0 2.756414,-1.23669 2.756414,-2.75697 0,-1.52024 -1.236108,-2.7563 -2.756414,-2.7563 z m 0,0.37243 c 1.318979,0 2.383969,1.06492 2.383969,2.38387 0,1.31893 -1.06499,2.38397 -2.383969,2.38397 -1.318822,0 -2.384602,-1.06504 -2.384602,-2.38397 0,-1.31895 1.06578,-2.38387 2.384602,-2.38387 z"/><path style="color:#000000;font-style:normal;font-variant:normal;font-weight:normal;font-stretch:normal;font-size:medium;line-height:normal;font-family:sans-serif;text-indent:0;text-align:start;text-decoration:none;text-decoration-line:none;text-decoration-style:solid;text-decoration-color:#000000;letter-spacing:normal;word-spacing:normal;text-transform:none;direction:ltr;block-progression:tb;writing-mode:lr-tb;baseline-shift:baseline;text-anchor:start;white-space:normal;clip-rule:nonzero;display:inline;overflow:visible;visibility:visible;opacity:1;isolation:auto;mix-blend-mode:normal;color-interpolation:sRGB;color-interpolation-filters:linearRGB;solid-color:#000000;solid-opacity:1;fill:#000000;fill-opacity:1;fill-rule:nonzero;stroke:none;stroke-width:4.06410885;stroke-linecap:round;stroke-linejoin:round;stroke-miterlimit:4;stroke-dasharray:none;stroke-dashoffset:0;stroke-opacity:1;color-rendering:auto;image-rendering:auto;shape-rendering:auto;text-rendering:auto;enable-background:accumulate" d="m 63.879411,992.51827 c -2.806074,0 -5.099581,2.29274 -5.099581,5.09871 0,2.80602 2.293507,5.09952 5.099581,5.09952 2.805916,0 5.098632,-2.2935 5.098632,-5.09952 0,-2.80597 -2.292716,-5.09871 -5.098632,-5.09871 z m 0,1.71411 c 1.879625,0 3.38459,1.50493 3.38459,3.3846 0,1.87972 -1.504965,3.38542 -3.38459,3.38542 -1.879784,0 -3.385382,-1.5057 -3.385382,-3.38542 0,-1.87967 1.505598,-3.3846 3.385382,-3.3846 z"/><path style="color:#000000;font-style:normal;font-variant:normal;font-weight:normal;font-stretch:normal;font-size:medium;line-height:normal;font-family:sans-serif;text-indent:0;text-align:start;text-decoration:none;text-decoration-line:none;text-decoration-style:solid;text-decoration-color:#000000;letter-spacing:normal;word-spacing:normal;text-transform:none;direction:ltr;block-progression:tb;writing-mode:lr-tb;baseline-shift:baseline;text-anchor:start;white-space:normal;clip-rule:nonzero;display:inline;overflow:visible;visibility:visible;opacity:1;isolation:auto;mix-blend-mode:normal;color-interpolation:sRGB;color-interpolation-filters:linearRGB;solid-color:#000000;solid-opacity:1;fill:#000000;fill-opacity:1;fill-rule:evenodd;stroke:none;stroke-width:1.5;stroke-linecap:round;stroke-linejoin:round;stroke-miterlimit:4;stroke-dasharray:none;stroke-dashoffset:0;stroke-opacity:1;color-rendering:auto;image-rendering:auto;shape-rendering:auto;text-rendering:auto;enable-background:accumulate" d="m 56.359961,983.17971 a 0.31633373,0.31633373 0 0 0 -0.218407,0.52964 l 1.408652,1.57492 -0.237227,0.74628 -0.184562,-0.0642 a 0.31633373,0.31633373 0 1 0 -0.209234,0.59635 l 0.492641,0.17299 a 0.31633373,0.31633373 0 0 0 0.405973,-0.20346 l 0.389685,-1.22896 a 0.31633373,0.31633373 0 0 0 -0.06595,-0.30642 l -1.528688,-1.70919 a 0.31633373,0.31633373 0 0 0 -0.252884,-0.1079 z"/><path style="color:#000000;font-style:normal;font-variant:normal;font-weight:normal;font-stretch:normal;font-size:medium;line-height:normal;font-family:sans-serif;text-indent:0;text-align:start;text-decoration:none;text-decoration-line:none;text-decoration-style:solid;text-decoration-color:#000000;letter-spacing:normal;word-spacing:normal;text-transform:none;direction:ltr;block-progression:tb;writing-mode:lr-tb;baseline-shift:baseline;text-anchor:start;white-space:normal;clip-rule:nonzero;display:inline;overflow:visible;visibility:visible;opacity:1;isolation:auto;mix-blend-mode:normal;color-interpolation:sRGB;color-interpolation-filters:linearRGB;solid-color:#000000;solid-opacity:1;fill:#000000;fill-opacity:1;fill-rule:evenodd;stroke:none;stroke-width:1.5;stroke-linecap:round;stroke-linejoin:round;stroke-miterlimit:4;stroke-dasharray:none;stroke-dashoffset:0;stroke-opacity:1;color-rendering:auto;image-rendering:auto;shape-rendering:auto;text-rendering:auto;enable-background:accumulate" d="m 52.208338,987.93107 a 0.31633373,0.31633373 0 0 0 -0.142494,0.0404 l -5.20744,2.89779 -2.107046,0.3303 a 0.31641476,0.31641476 0 1 0 0.09805,0.62518 l 2.162241,-0.33936 a 0.31633373,0.31633373 0 0 0 0.105329,-0.0362 l 5.111126,-2.84424 1.376388,0.68861 a 0.31633373,0.31633373 0 0 0 0.07417,0.0264 l 3.307097,0.72074 a 0.31659008,0.31659008 0 1 0 0.135061,-0.6186 l -3.26835,-0.71168 -1.49089,-0.74545 a 0.31633373,0.31633373 0 0 0 -0.153248,-0.0338 z"/><path style="color:#000000;font-style:normal;font-variant:normal;font-weight:normal;font-stretch:normal;font-size:medium;line-height:normal;font-family:sans-serif;text-indent:0;text-align:start;text-decoration:none;text-decoration-line:none;text-decoration-style:solid;text-decoration-color:#000000;letter-spacing:normal;word-spacing:normal;text-transform:none;direction:ltr;block-progression:tb;writing-mode:lr-tb;baseline-shift:baseline;text-anchor:start;white-space:normal;clip-rule:nonzero;display:inline;overflow:visible;visibility:visible;opacity:1;isolation:auto;mix-blend-mode:normal;color-interpolation:sRGB;color-interpolation-filters:linearRGB;solid-color:#000000;solid-opacity:1;fill:#000000;fill-opacity:1;fill-rule:evenodd;stroke:none;stroke-width:1.5;stroke-linecap:round;stroke-linejoin:round;stroke-miterlimit:4;stroke-dasharray:none;stroke-dashoffset:0;stroke-opacity:1;color-rendering:auto;image-rendering:auto;shape-rendering:auto;text-rendering:auto;enable-background:accumulate" d="m 57.040485,989.40676 a 0.31633373,0.31633373 0 0 0 -0.270122,0.17544 l -2.218227,4.30963 -5.208388,4.36894 a 0.31633373,0.31633373 0 0 0 -0.05345,0.42666 l 0.763553,1.06012 a 0.31633373,0.31633373 0 1 0 0.5132,-0.36985 l -0.591485,-0.82125 5.03205,-4.22066 a 0.31633373,0.31633373 0 0 0 0.07829,-0.0972 l 2.24701,-4.36729 a 0.31633373,0.31633373 0 0 0 -0.292421,-0.46457 z"/><path style="color:#000000;font-style:normal;font-variant:normal;font-weight:normal;font-stretch:normal;font-size:medium;line-height:normal;font-family:sans-serif;text-indent:0;text-align:start;text-decoration:none;text-decoration-line:none;text-decoration-style:solid;text-decoration-color:#000000;letter-spacing:normal;word-spacing:normal;text-transform:none;direction:ltr;block-progression:tb;writing-mode:lr-tb;baseline-shift:baseline;text-anchor:start;white-space:normal;clip-rule:nonzero;display:inline;overflow:visible;visibility:visible;opacity:1;isolation:auto;mix-blend-mode:normal;color-interpolation:sRGB;color-interpolation-filters:linearRGB;solid-color:#000000;solid-opacity:1;fill:#000000;fill-opacity:1;fill-rule:evenodd;stroke:none;stroke-width:1.5;stroke-linecap:round;stroke-linejoin:round;stroke-miterlimit:4;stroke-dasharray:none;stroke-dashoffset:0;stroke-opacity:1;color-rendering:auto;image-rendering:auto;shape-rendering:auto;text-rendering:auto;enable-background:accumulate" d="m 52.362061,995.83802 a 0.31633373,0.31633373 0 0 0 -0.195317,0.0733 l -0.785852,0.63594 -5.298061,-0.64745 a 0.31633373,0.31633373 0 0 0 -0.165426,0.024 l -2.492618,1.09307 a 0.31633373,0.31633373 0 1 0 0.254623,0.57908 l 2.412594,-1.05763 5.345031,0.65319 a 0.31633373,0.31633373 0 0 0 0.237227,-0.0676 l 0.89039,-0.72071 a 0.31633373,0.31633373 0 0 0 -0.202591,-0.56509 z"/></g><text x="0" y="115" fill="#000000" font-size="5px" font-weight="bold" font-family="'Helvetica Neue', Helvetica, Arial-Unicode, Arial, Sans-serif">Created by P Thanga Vignesh</text><text x="0" y="120" fill="#000000" font-size="5px" font-weight="bold" font-family="'Helvetica Neue', Helvetica, Arial-Unicode, Arial, Sans-serif">from the Noun Project</text></svg>